<svg width="45" height="45" viewBox="0 0 45 45" fill="none" xmlns="http://www.w3.org/2000/svg">
<path d="M6.4209 22.4297C6.4204 22.7082 6.50261 22.9806 6.65709 23.2123C6.81158 23.444 7.03139 23.6246 7.28866 23.7313C7.54593 23.8379 7.82907 23.8658 8.10219 23.8113C8.3753 23.7568 8.6261 23.6225 8.82278 23.4253L21.7462 10.4963C23.065 9.17748 24.8537 8.43659 26.7187 8.43659C27.6422 8.43659 28.5566 8.61848 29.4098 8.97188C30.263 9.32528 31.0382 9.84327 31.6912 10.4963C32.3442 11.1493 32.8622 11.9245 33.2156 12.7777C33.569 13.6308 33.7509 14.5453 33.7509 15.4688C33.7509 16.3922 33.569 17.3067 33.2156 18.1599C32.8622 19.013 32.3442 19.7883 31.6912 20.4413L16.7765 35.356C16.2461 35.8683 15.5356 36.1518 14.7982 36.1453C14.0608 36.1389 13.3554 35.8432 12.8339 35.3217C12.3125 34.8002 12.0167 34.0948 12.0103 33.3574C12.0038 32.62 12.2873 31.9095 12.7997 31.3791L27.7143 16.4644C27.8451 16.3336 27.9488 16.1784 28.0196 16.0076C28.0903 15.8368 28.1267 15.6537 28.1267 15.4688C28.1267 15.2839 28.0903 15.1008 28.0196 14.9299C27.9488 14.7591 27.8451 14.6039 27.7143 14.4731C27.5836 14.3424 27.4284 14.2387 27.2575 14.1679C27.0867 14.0972 26.9036 14.0607 26.7187 14.0607C26.5338 14.0607 26.3507 14.0972 26.1799 14.1679C26.0091 14.2387 25.8538 14.3424 25.7231 14.4731L10.8084 29.3906C10.2712 29.9095 9.84263 30.5302 9.54783 31.2165C9.25303 31.9028 9.09786 32.6409 9.09137 33.3878C9.08488 34.1346 9.2272 34.8753 9.51003 35.5666C9.79286 36.2579 10.2105 36.886 10.7387 37.4141C11.2668 37.9423 11.8949 38.3599 12.5862 38.6428C13.2775 38.9256 14.0181 39.0679 14.765 39.0614C15.5119 39.0549 16.25 38.8998 16.9363 38.605C17.6226 38.3102 18.2433 37.8816 18.7622 37.3444L33.6768 22.4297C35.523 20.5835 36.5602 18.0796 36.5602 15.4688C36.5602 12.8579 35.523 10.354 33.6768 8.50783C31.8307 6.66167 29.3268 5.62451 26.7159 5.62451C24.105 5.62451 21.6011 6.66167 19.755 8.50783L6.83434 21.4341C6.70383 21.5649 6.60039 21.7202 6.52994 21.891C6.45948 22.0619 6.42057 22.2449 6.4209 22.4297Z" fill="#9A9493"/>
</svg>
