<svg width="100" height="100" viewBox="0 0 100 100" fill="none" xmlns="http://www.w3.org/2000/svg">
<path d="M74.9997 12.5C79.4199 12.5 83.6592 14.2559 86.7848 17.3816C89.9104 20.5072 91.6663 24.7464 91.6663 29.1667V62.5C91.6663 66.9203 89.9104 71.1595 86.7848 74.2851C83.6592 77.4107 79.4199 79.1667 74.9997 79.1667H55.3163L35.4747 91.0708C34.8771 91.4294 34.1992 91.6324 33.5029 91.6612C32.8066 91.6901 32.1142 91.5438 31.4891 91.2358C30.864 90.9278 30.3261 90.4679 29.9246 89.8982C29.5232 89.3286 29.2711 88.6673 29.1913 87.975L29.1663 87.5V79.1667H24.9997C20.7237 79.1667 16.6112 77.5232 13.513 74.5762C10.4147 71.6291 8.56764 67.604 8.35384 63.3333L8.33301 62.5V29.1667C8.33301 24.7464 10.089 20.5072 13.2146 17.3816C16.3402 14.2559 20.5794 12.5 24.9997 12.5H74.9997ZM63.333 51.1917C62.5439 50.4182 61.48 49.9899 60.3751 50.0008C59.2702 50.0117 58.2149 50.4611 57.4413 51.25C56.4714 52.2402 55.3136 53.0269 54.0358 53.564C52.758 54.1011 51.3858 54.3777 49.9997 54.3777C48.6136 54.3777 47.2414 54.1011 45.9636 53.564C44.6857 53.0269 43.5279 52.2402 42.558 51.25C41.7805 50.4793 40.7309 50.0455 39.6362 50.0425C38.5414 50.0395 37.4894 50.4675 36.7077 51.2339C35.926 52.0003 35.4773 53.0436 35.4586 54.1382C35.44 55.2328 35.8528 56.2907 36.608 57.0833C38.3537 58.8647 40.4374 60.28 42.7369 61.2461C45.0363 62.2122 47.5055 62.7099 49.9997 62.7099C52.4939 62.7099 54.963 62.2122 57.2625 61.2461C59.562 60.28 61.6456 58.8647 63.3913 57.0833C64.1648 56.2943 64.5931 55.2303 64.5822 54.1254C64.5713 53.0206 64.1219 51.9653 63.333 51.1917ZM39.6247 33.3333H39.583C38.4779 33.3333 37.4181 33.7723 36.6367 34.5537C35.8553 35.3351 35.4163 36.3949 35.4163 37.5C35.4163 38.6051 35.8553 39.6649 36.6367 40.4463C37.4181 41.2277 38.4779 41.6667 39.583 41.6667H39.6247C40.7297 41.6667 41.7896 41.2277 42.571 40.4463C43.3524 39.6649 43.7913 38.6051 43.7913 37.5C43.7913 36.3949 43.3524 35.3351 42.571 34.5537C41.7896 33.7723 40.7297 33.3333 39.6247 33.3333ZM60.458 33.3333H60.4163C59.3113 33.3333 58.2515 33.7723 57.4701 34.5537C56.6887 35.3351 56.2497 36.3949 56.2497 37.5C56.2497 38.6051 56.6887 39.6649 57.4701 40.4463C58.2515 41.2277 59.3113 41.6667 60.4163 41.6667H60.458C61.5631 41.6667 62.6229 41.2277 63.4043 40.4463C64.1857 39.6649 64.6247 38.6051 64.6247 37.5C64.6247 36.3949 64.1857 35.3351 63.4043 34.5537C62.6229 33.7723 61.5631 33.3333 60.458 33.3333Z" fill="#95E06C"/>
</svg>
