<svg width="40" height="40" viewBox="0 0 40 40" fill="none" xmlns="http://www.w3.org/2000/svg">
<path d="M12.4038 24.6663C12.3599 24.5968 12.3028 24.5367 12.2358 24.4893C12.1687 24.4419 12.093 24.4082 12.0129 24.3901C11.9328 24.372 11.8499 24.3699 11.769 24.3838C11.6881 24.3977 11.6107 24.4274 11.5413 24.4712C11.4718 24.5151 11.4117 24.5722 11.3643 24.6392C11.3169 24.7063 11.2832 24.782 11.2651 24.8621C11.247 24.9422 11.2449 25.0251 11.2588 25.106C11.2727 25.1869 11.3024 25.2643 11.3462 25.3337C13.125 28.1488 16.4513 30 20 30C23.5487 30 26.875 28.1488 28.6538 25.3337C28.6976 25.2643 28.7273 25.1869 28.7412 25.106C28.7551 25.0251 28.753 24.9422 28.7349 24.8621C28.7168 24.782 28.6831 24.7063 28.6357 24.6392C28.5883 24.5722 28.5282 24.5151 28.4587 24.4712C28.3893 24.4274 28.3119 24.3977 28.231 24.3838C28.1501 24.3699 28.0672 24.372 27.9871 24.3901C27.907 24.4082 27.8313 24.4419 27.7642 24.4893C27.6972 24.5367 27.6401 24.5968 27.5962 24.6663C26.0525 27.11 23.13 28.75 20 28.75C16.87 28.75 13.9475 27.11 12.4038 24.6663ZM16.875 16.25C16.875 16.7473 16.6775 17.2242 16.3258 17.5758C15.9742 17.9275 15.4973 18.125 15 18.125C14.5027 18.125 14.0258 17.9275 13.6742 17.5758C13.3225 17.2242 13.125 16.7473 13.125 16.25C13.125 15.7527 13.3225 15.2758 13.6742 14.9242C14.0258 14.5725 14.5027 14.375 15 14.375C15.4973 14.375 15.9742 14.5725 16.3258 14.9242C16.6775 15.2758 16.875 15.7527 16.875 16.25ZM25 18.125C25.4973 18.125 25.9742 17.9275 26.3258 17.5758C26.6775 17.2242 26.875 16.7473 26.875 16.25C26.875 15.7527 26.6775 15.2758 26.3258 14.9242C25.9742 14.5725 25.4973 14.375 25 14.375C24.5027 14.375 24.0258 14.5725 23.6742 14.9242C23.3225 15.2758 23.125 15.7527 23.125 16.25C23.125 16.7473 23.3225 17.2242 23.6742 17.5758C24.0258 17.9275 24.5027 18.125 25 18.125ZM20 2.5C10.335 2.5 2.5 10.335 2.5 20C2.5 29.665 10.335 37.5 20 37.5C29.665 37.5 37.5 29.665 37.5 20C37.5 10.335 29.665 2.5 20 2.5ZM3.75 20C3.75 11.025 11.025 3.75 20 3.75C28.975 3.75 36.25 11.025 36.25 20C36.25 28.975 28.975 36.25 20 36.25C11.025 36.25 3.75 28.975 3.75 20Z" fill="#9A9493"/>
</svg>
