<svg width="32" height="32" viewBox="0 0 32 32" fill="none" xmlns="http://www.w3.org/2000/svg">
<path d="M16 1C17.3854 1 18.7135 1.17708 19.9844 1.53125C21.2552 1.88542 22.4531 2.38542 23.5781 3.03125C24.7031 3.67708 25.7135 4.45833 26.6094 5.375C27.5052 6.29167 28.2865 7.30729 28.9531 8.42188C29.6198 9.53646 30.125 10.7292 30.4688 12C30.8125 13.2708 30.9896 14.6042 31 16C31 17.3854 30.8229 18.7135 30.4688 19.9844C30.1146 21.2552 29.6146 22.4531 28.9688 23.5781C28.3229 24.7031 27.5417 25.7135 26.625 26.6094C25.7083 27.5052 24.6927 28.2865 23.5781 28.9531C22.4635 29.6198 21.2708 30.125 20 30.4688C18.7292 30.8125 17.3958 30.9896 16 31C14.6146 31 13.2865 30.8229 12.0156 30.4688C10.7448 30.1146 9.54688 29.6146 8.42188 28.9688C7.29688 28.3229 6.28646 27.5417 5.39062 26.625C4.49479 25.7083 3.71354 24.6927 3.04688 23.5781C2.38021 22.4635 1.875 21.2708 1.53125 20C1.1875 18.7292 1.01042 17.3958 1 16C1 14.6146 1.17708 13.2865 1.53125 12.0156C1.88542 10.7448 2.38542 9.54688 3.03125 8.42188C3.67708 7.29688 4.45833 6.28646 5.375 5.39062C6.29167 4.49479 7.30729 3.71354 8.42188 3.04688C9.53646 2.38021 10.7292 1.875 12 1.53125C13.2708 1.1875 14.6042 1.01042 16 1ZM16 29C17.1875 29 18.3333 28.8438 19.4375 28.5312C20.5417 28.2188 21.5781 27.7812 22.5469 27.2188C23.5156 26.6562 24.3958 25.9792 25.1875 25.1875C25.9792 24.3958 26.6562 23.5208 27.2188 22.5625C27.7812 21.6042 28.2188 20.5677 28.5312 19.4531C28.8438 18.3385 29 17.1875 29 16C29 14.8125 28.8438 13.6667 28.5312 12.5625C28.2188 11.4583 27.7812 10.4219 27.2188 9.45312C26.6562 8.48438 25.9792 7.60417 25.1875 6.8125C24.3958 6.02083 23.5208 5.34375 22.5625 4.78125C21.6042 4.21875 20.5677 3.78125 19.4531 3.46875C18.3385 3.15625 17.1875 3 16 3C14.8021 3 13.651 3.15625 12.5469 3.46875C11.4427 3.78125 10.4115 4.21875 9.45312 4.78125C8.49479 5.34375 7.61458 6.02083 6.8125 6.8125C6.01042 7.60417 5.33333 8.47917 4.78125 9.4375C4.22917 10.3958 3.79167 11.4323 3.46875 12.5469C3.14583 13.6615 2.98958 14.8125 3 16C3 17.1875 3.15625 18.3333 3.46875 19.4375C3.78125 20.5417 4.21875 21.5781 4.78125 22.5469C5.34375 23.5156 6.02083 24.3958 6.8125 25.1875C7.60417 25.9792 8.47917 26.6562 9.4375 27.2188C10.3958 27.7812 11.4323 28.2188 12.5469 28.5312C13.6615 28.8438 14.8125 29 16 29ZM15 9H17V19H15V9ZM15 21H17V23H15V21Z" fill="#F8F8FF"/>
</svg>
