<svg width="20" height="20" viewBox="0 0 20 20" fill="none" xmlns="http://www.w3.org/2000/svg">
<path d="M9.6 13.2C10.5548 13.2 11.4705 12.8207 12.1456 12.1456C12.8207 11.4705 13.2 10.5548 13.2 9.6C13.2 8.64522 12.8207 7.72955 12.1456 7.05442C11.4705 6.37928 10.5548 6 9.6 6C8.64522 6 7.72955 6.37928 7.05442 7.05442C6.37928 7.72955 6 8.64522 6 9.6C6 10.5548 6.37928 11.4705 7.05442 12.1456C7.72955 12.8207 8.64522 13.2 9.6 13.2ZM10.2 0.6C10.2 0.44087 10.1368 0.288258 10.0243 0.175736C9.91174 0.0632142 9.75913 0 9.6 0C9.44087 0 9.28826 0.0632142 9.17574 0.175736C9.06321 0.288258 9 0.44087 9 0.6V2.424C7.30334 2.56565 5.71176 3.30397 4.50787 4.50787C3.30397 5.71176 2.56565 7.30334 2.424 9H0.6C0.44087 9 0.288258 9.06321 0.175736 9.17574C0.0632142 9.28826 0 9.44087 0 9.6C0 9.75913 0.0632142 9.91174 0.175736 10.0243C0.288258 10.1368 0.44087 10.2 0.6 10.2H2.424C2.56565 11.8967 3.30397 13.4882 4.50787 14.6921C5.71176 15.896 7.30334 16.6343 9 16.776V18.6C9 18.7591 9.06321 18.9117 9.17574 19.0243C9.28826 19.1368 9.44087 19.2 9.6 19.2C9.75913 19.2 9.91174 19.1368 10.0243 19.0243C10.1368 18.9117 10.2 18.7591 10.2 18.6V16.776C11.8967 16.6343 13.4882 15.896 14.6921 14.6921C15.896 13.4882 16.6343 11.8967 16.776 10.2H18.6C18.7591 10.2 18.9117 10.1368 19.0243 10.0243C19.1368 9.91174 19.2 9.75913 19.2 9.6C19.2 9.44087 19.1368 9.28826 19.0243 9.17574C18.9117 9.06321 18.7591 9 18.6 9H16.776C16.6343 7.30334 15.896 5.71176 14.6921 4.50787C13.4882 3.30397 11.8967 2.56565 10.2 2.424V0.6ZM9.6 15.6C8.0087 15.6 6.48258 14.9679 5.35736 13.8426C4.23214 12.7174 3.6 11.1913 3.6 9.6C3.6 8.0087 4.23214 6.48258 5.35736 5.35736C6.48258 4.23214 8.0087 3.6 9.6 3.6C11.1913 3.6 12.7174 4.23214 13.8426 5.35736C14.9679 6.48258 15.6 8.0087 15.6 9.6C15.6 11.1913 14.9679 12.7174 13.8426 13.8426C12.7174 14.9679 11.1913 15.6 9.6 15.6Z" fill="currentColor"/>
</svg>
