<svg width="44" height="44" viewBox="0 0 44 44" fill="none" xmlns="http://www.w3.org/2000/svg">
<path fill-rule="evenodd" clip-rule="evenodd" d="M20.713 4.02425C21.4365 3.75356 22.227 3.71827 22.9717 3.92342L23.287 4.02425L36.1203 8.83675C36.771 9.08075 37.339 9.50464 37.758 10.059C38.1771 10.6134 38.4299 11.2755 38.4872 11.9681L38.5 12.2706V22.1027C38.4999 25.0735 37.6978 27.9892 36.1783 30.5419C34.6588 33.0947 32.4782 35.1898 29.8668 36.6062L29.3792 36.8611L23.2302 39.9356C22.8916 40.1046 22.5218 40.202 22.1439 40.2215C21.7659 40.2411 21.388 40.1824 21.0338 40.0492L20.7698 39.9356L14.6208 36.8611C11.9636 35.5324 9.71442 33.511 8.11067 31.0102C6.50693 28.5094 5.60813 25.622 5.50917 22.6527L5.5 22.1027V12.2706C5.50001 11.576 5.69732 10.8957 6.06895 10.3089C6.44057 9.72205 6.97124 9.25286 7.59917 8.95592L7.87967 8.83675L20.713 4.02425ZM28.2938 15.8199L19.8642 24.2496L16.6228 21.0082C16.2788 20.6645 15.8123 20.4715 15.326 20.4716C14.8397 20.4718 14.3733 20.6652 14.0296 21.0092C13.6858 21.3532 13.4928 21.8197 13.493 22.306C13.4931 22.7923 13.6865 23.2586 14.0305 23.6024L18.4378 28.0097C18.6251 28.1971 18.8475 28.3457 19.0922 28.4472C19.3369 28.5486 19.5993 28.6007 19.8642 28.6007C20.1291 28.6007 20.3914 28.5486 20.6361 28.4472C20.8809 28.3457 21.1032 28.1971 21.2905 28.0097L30.8862 18.4123C31.0613 18.2431 31.2009 18.0408 31.297 17.8172C31.3931 17.5935 31.4437 17.3529 31.4458 17.1095C31.4479 16.8661 31.4015 16.6246 31.3093 16.3993C31.2172 16.174 31.081 15.9693 30.9089 15.7972C30.7368 15.6251 30.5321 15.4889 30.3067 15.3967C30.0814 15.3046 29.84 15.2582 29.5966 15.2603C29.3532 15.2624 29.1126 15.313 28.8889 15.4091C28.6653 15.5051 28.463 15.6448 28.2938 15.8199Z" fill="#F8F8FF"/>
</svg>
