<svg width="45" height="45" viewBox="0 0 45 45" fill="none" xmlns="http://www.w3.org/2000/svg">
<path d="M19.6875 11.25C19.6875 10.8563 19.6875 10.6622 19.71 10.4991C19.7816 9.98355 20.0195 9.50549 20.3875 9.13747C20.7555 8.76946 21.2336 8.53159 21.7491 8.46C21.9094 8.4375 22.1063 8.4375 22.5 8.4375C22.8937 8.4375 23.0878 8.4375 23.2509 8.46C23.7664 8.53159 24.2445 8.76946 24.6125 9.13747C24.9805 9.50549 25.2184 9.98355 25.29 10.4991C25.3125 10.6594 25.3125 10.8563 25.3125 11.25C25.3125 11.6437 25.3125 11.8378 25.29 12.0009C25.2184 12.5164 24.9805 12.9945 24.6125 13.3625C24.2445 13.7305 23.7664 13.9684 23.2509 14.04C23.0906 14.0625 22.8937 14.0625 22.5 14.0625C22.1063 14.0625 21.9122 14.0625 21.7491 14.04C21.2336 13.9684 20.7555 13.7305 20.3875 13.3625C20.0195 12.9945 19.7816 12.5164 19.71 12.0009C19.6875 11.8406 19.6875 11.6437 19.6875 11.25ZM19.6875 22.5C19.6875 22.1062 19.6875 21.9122 19.71 21.7491C19.7816 21.2336 20.0195 20.7555 20.3875 20.3875C20.7555 20.0195 21.2336 19.7816 21.7491 19.71C21.9094 19.6875 22.1063 19.6875 22.5 19.6875C22.8937 19.6875 23.0878 19.6875 23.2509 19.71C23.7664 19.7816 24.2445 20.0195 24.6125 20.3875C24.9805 20.7555 25.2184 21.2336 25.29 21.7491C25.3125 21.9094 25.3125 22.1062 25.3125 22.5C25.3125 22.8938 25.3125 23.0878 25.29 23.2509C25.2184 23.7664 24.9805 24.2445 24.6125 24.6125C24.2445 24.9805 23.7664 25.2184 23.2509 25.29C23.0906 25.3125 22.8937 25.3125 22.5 25.3125C22.1063 25.3125 21.9122 25.3125 21.7491 25.29C21.2336 25.2184 20.7555 24.9805 20.3875 24.6125C20.0195 24.2445 19.7816 23.7664 19.71 23.2509C19.6875 23.0906 19.6875 22.8938 19.6875 22.5ZM19.6875 33.75C19.6875 33.3591 19.6875 33.1622 19.71 32.9991C19.782 32.4845 20.0197 32.0074 20.3871 31.6399C20.7545 31.2725 21.2317 31.0348 21.7462 30.9628C21.9122 30.9403 22.1063 30.9403 22.4972 30.9403C22.8881 30.9403 23.0878 30.9403 23.2481 30.9628C23.7627 31.0348 24.2398 31.2725 24.6072 31.6399C24.9747 32.0074 25.2124 32.4845 25.2844 32.9991C25.3069 33.1622 25.3069 33.3591 25.3069 33.75C25.3069 34.1409 25.3069 34.3378 25.2844 34.5009C25.2124 35.0155 24.9747 35.4926 24.6072 35.8601C24.2398 36.2275 23.7627 36.4652 23.2481 36.5372C23.085 36.5597 22.8881 36.5597 22.4972 36.5597C22.1063 36.5597 21.9094 36.5597 21.7462 36.5372C21.2317 36.4652 20.7545 36.2275 20.3871 35.8601C20.0197 35.4926 19.782 35.0155 19.71 34.5009C19.6875 34.3378 19.6875 34.1409 19.6875 33.75Z" fill="#9A9493"/>
</svg>
