<svg width="44" height="44" viewBox="0 0 44 44" fill="none" xmlns="http://www.w3.org/2000/svg">
<path d="M22 3.66675C17.1377 3.66675 12.4746 5.59829 9.0364 9.03646C5.59823 12.4746 3.66669 17.1378 3.66669 22.0001C3.66669 26.8624 5.59823 31.5255 9.0364 34.9637C12.4746 38.4019 17.1377 40.3334 22 40.3334C26.8623 40.3334 31.5255 38.4019 34.9636 34.9637C38.4018 31.5255 40.3334 26.8624 40.3334 22.0001C40.3334 17.1378 38.4018 12.4746 34.9636 9.03646C31.5255 5.59829 26.8623 3.66675 22 3.66675ZM23.7188 12.8334V24.2917H20.2813V12.8334H23.7188ZM23.7188 27.7292V31.1667H20.2813V27.7292H23.7188Z" fill="#F8F8FF"/>
</svg>
