<svg width="24" height="24" viewBox="0 0 24 24" fill="none" xmlns="http://www.w3.org/2000/svg">
<path d="M17.28 9.27997C17.4125 9.13779 17.4846 8.94975 17.4812 8.75545C17.4778 8.56115 17.3991 8.37576 17.2617 8.23835C17.1242 8.10093 16.9389 8.02222 16.7446 8.01879C16.5503 8.01537 16.3622 8.08749 16.22 8.21997L10.25 14.19L7.78003 11.72C7.63785 11.5875 7.44981 11.5154 7.25551 11.5188C7.06121 11.5222 6.87582 11.6009 6.73841 11.7383C6.60099 11.8758 6.52228 12.0611 6.51885 12.2554C6.51543 12.4497 6.58755 12.6378 6.72003 12.78L9.72003 15.78C9.86066 15.9204 10.0513 15.9993 10.25 15.9993C10.4488 15.9993 10.6394 15.9204 10.78 15.78L17.28 9.27997Z" fill="#F8F8FF"/>
<path d="M3.75 2H20.25C21.216 2 22 2.784 22 3.75V20.25C22 20.7141 21.8156 21.1592 21.4874 21.4874C21.1592 21.8156 20.7141 22 20.25 22H3.75C3.28587 22 2.84075 21.8156 2.51256 21.4874C2.18437 21.1592 2 20.7141 2 20.25V3.75C2 2.784 2.784 2 3.75 2ZM3.5 3.75V20.25C3.5 20.388 3.612 20.5 3.75 20.5H20.25C20.3163 20.5 20.3799 20.4737 20.4268 20.4268C20.4737 20.3799 20.5 20.3163 20.5 20.25V3.75C20.5 3.6837 20.4737 3.62011 20.4268 3.57322C20.3799 3.52634 20.3163 3.5 20.25 3.5H3.75C3.6837 3.5 3.62011 3.52634 3.57322 3.57322C3.52634 3.62011 3.5 3.6837 3.5 3.75Z" fill="#F8F8FF"/>
</svg>
