<svg width="64" height="64" viewBox="0 0 64 64" fill="none" xmlns="http://www.w3.org/2000/svg">
<rect width="64" height="64" rx="16" fill="#FE5A1D"/>
<path d="M32 13.6667C27.1377 13.6667 22.4746 15.5983 19.0364 19.0365C15.5982 22.4746 13.6667 27.1378 13.6667 32.0001C13.6667 36.8624 15.5982 41.5255 19.0364 44.9637C22.4746 48.4019 27.1377 50.3334 32 50.3334C36.8623 50.3334 41.5255 48.4019 44.9636 44.9637C48.4018 41.5255 50.3334 36.8624 50.3334 32.0001C50.3334 27.1378 48.4018 22.4746 44.9636 19.0365C41.5255 15.5983 36.8623 13.6667 32 13.6667ZM33.7188 22.8334V34.2917H30.2813V22.8334H33.7188ZM33.7188 37.7292V41.1667H30.2813V37.7292H33.7188Z" fill="#F8F8FF"/>
</svg>
