<svg width="49" height="49" viewBox="0 0 49 49" fill="none" xmlns="http://www.w3.org/2000/svg">
<g clip-path="url(#clip0_434_30)">
<path d="M24.3583 2.70648C20.076 2.70648 15.8898 3.97633 12.3292 6.35546C8.76862 8.73458 5.99346 12.1161 4.35469 16.0725C2.71592 20.0288 2.28715 24.3822 3.12258 28.5823C3.95802 32.7823 6.02015 36.6403 9.0482 39.6683C12.0763 42.6964 15.9342 44.7585 20.1343 45.5939C24.3343 46.4294 28.6877 46.0006 32.6441 44.3618C36.6004 42.7231 39.9819 39.9479 42.3611 36.3873C44.7402 32.8267 46.01 28.6405 46.01 24.3582C46.01 18.6158 43.7289 13.1086 39.6684 9.04813C35.6079 4.98764 30.1007 2.70648 24.3583 2.70648ZM24.3583 43.3035C20.6113 43.3035 16.9484 42.1924 13.8329 40.1106C10.7173 38.0289 8.28907 35.0701 6.85514 31.6083C5.42122 28.1465 5.04604 24.3372 5.77705 20.6622C6.50806 16.9872 8.31242 13.6114 10.962 10.9619C13.6115 8.31235 16.9872 6.50799 20.6623 5.77698C24.3373 5.04597 28.1465 5.42115 31.6083 6.85507C35.0701 8.289 38.029 10.7173 40.1107 13.8328C42.1924 16.9483 43.3036 20.6112 43.3036 24.3582C43.3036 29.3828 41.3076 34.2016 37.7546 37.7546C34.2017 41.3075 29.3829 43.3035 24.3583 43.3035Z" fill="#F8F8FF"/>
<path d="M37.8906 16.3741C37.6371 16.1221 37.2941 15.9806 36.9366 15.9806C36.5791 15.9806 36.2361 16.1221 35.9826 16.3741L20.9617 31.3273L12.8423 23.2079C12.5946 22.9406 12.2509 22.7825 11.8867 22.7685C11.5225 22.7546 11.1677 22.8859 10.9004 23.1335C10.633 23.3811 10.4749 23.7249 10.461 24.089C10.447 24.4532 10.5783 24.808 10.8259 25.0754L20.9617 35.1841L37.8906 18.2957C38.0175 18.1699 38.1181 18.0202 38.1868 17.8553C38.2555 17.6904 38.2909 17.5135 38.2909 17.3349C38.2909 17.1563 38.2555 16.9794 38.1868 16.8145C38.1181 16.6496 38.0175 16.4999 37.8906 16.3741Z" fill="#F8F8FF"/>
</g>
<defs>
<clipPath id="clip0_434_30">
<rect width="48.7164" height="48.7164" fill="white"/>
</clipPath>
</defs>
</svg>
